<svg xmlns="http://www.w3.org/2000/svg" width="14.514" height="8.105" viewBox="0 0 14.514 8.105">
  <g id="Layer_13" data-name="Layer 13" transform="translate(-0.93 20.07) rotate(-90)">
    <path id="패스_3751" data-name="패스 3751" d="M19.734,30.571a.348.348,0,0,1-.238-.092l-7.432-6.942a.3.3,0,0,1,0-.445.354.354,0,0,1,.476,0l7.432,6.942a.3.3,0,0,1,.073.343.338.338,0,0,1-.311.194Z" transform="translate(0 -15.128)" fill="#fff"/>
    <path id="패스_3752" data-name="패스 3752" d="M12.3,8.5a.338.338,0,0,1-.311-.194.3.3,0,0,1,.073-.343L19.5,1.022a.354.354,0,0,1,.476,0,.3.3,0,0,1,0,.445L12.54,8.409A.348.348,0,0,1,12.3,8.5Z" transform="translate(0 0)" fill="#fff"/>
  </g>
</svg>
